super_sign coordinate motion generated from LLM joint_angles
version=1
nRows=18
nColumns=29
inDegrees=yes
endheader
time	elbow_flexion	pro_sup	rotaxis_auxprfem_r3	deviation	auxprrud_auxdrfem_r3	auxdrfem_auxdrrud_r1	MCP2_lateral	MCP2_flex	PIP_flex	DIP_flex	MCP2M_lateral	MCP2M_flex	MPIP_flex	MDIP_flex	RCP2M_lateral	RCP2M_flex	RPIP_flex	RDIP_flex	LCP2M_lateral	LCP2M_flex	LPIP_flex	LDIP_flex	thumb_abd	thumb_flex	TCP2M_lateral	TCP2M_flex	TCP2M2_flex	flexion
0.666667	0.000000	0.000000	0.000000	0.000000	0.000000	0.000000	0.000000	0.000000	0.000000	0.000000	0.000000	77.942286	77.942286	77.942286	0.000000	77.942286	77.942286	77.942286	0.000000	0.000000	0.000000	0.000000	0.000000	0.000000	0.000000	8.660254	8.660254	0.000000
0.673333	0.000000	0.000000	0.000000	0.000000	0.000000	0.000000	0.000000	0.000000	0.000000	0.000000	0.000000	76.982783	76.982783	76.982783	0.000000	76.982783	76.982783	76.982783	0.000000	0.000000	0.000000	0.000000	0.000000	0.000000	0.000000	8.553643	8.553643	0.000000
0.680000	0.000000	0.000000	0.000000	0.000000	0.000000	0.000000	0.000000	0.000000	0.000000	0.000000	0.000000	75.989513	75.989513	75.989513	0.000000	75.989513	75.989513	75.989513	0.000000	0.000000	0.000000	0.000000	0.000000	0.000000	0.000000	8.443279	8.443279	0.000000
0.686667	0.000000	0.000000	0.000000	0.000000	0.000000	0.000000	0.000000	0.000000	0.000000	0.000000	0.000000	74.962912	74.962912	74.962912	0.000000	74.962912	74.962912	74.962912	0.000000	0.000000	0.000000	0.000000	0.000000	0.000000	0.000000	8.329212	8.329212	0.000000
0.693333	0.000000	0.000000	0.000000	0.000000	0.000000	0.000000	0.000000	0.000000	0.000000	0.000000	0.000000	73.903429	73.903429	73.903429	0.000000	73.903429	73.903429	73.903429	0.000000	0.000000	0.000000	0.000000	0.000000	0.000000	0.000000	8.211492	8.211492	0.000000
0.700000	0.000000	0.000000	0.000000	0.000000	0.000000	0.000000	0.000000	0.000000	0.000000	0.000000	0.000000	72.811529	72.811529	72.811529	0.000000	72.811529	72.811529	72.811529	0.000000	0.000000	0.000000	0.000000	0.000000	0.000000	0.000000	8.090170	8.090170	0.000000
0.706667	0.000000	0.000000	0.000000	0.000000	0.000000	0.000000	0.000000	0.000000	0.000000	0.000000	0.000000	71.687693	71.687693	71.687693	0.000000	71.687693	71.687693	71.687693	0.000000	0.000000	0.000000	0.000000	0.000000	0.000000	0.000000	7.965299	7.965299	0.000000
0.713333	0.000000	0.000000	0.000000	0.000000	0.000000	0.000000	0.000000	0.000000	0.000000	0.000000	0.000000	70.532411	70.532411	70.532411	0.000000	70.532411	70.532411	70.532411	0.000000	0.000000	0.000000	0.000000	0.000000	0.000000	0.000000	7.836935	7.836935	0.000000
0.720000	0.000000	0.000000	0.000000	0.000000	0.000000	0.000000	0.000000	0.000000	0.000000	0.000000	0.000000	69.346192	69.346192	69.346192	0.000000	69.346192	69.346192	69.346192	0.000000	0.000000	0.000000	0.000000	0.000000	0.000000	0.000000	7.705132	7.705132	0.000000
0.726667	0.000000	0.000000	0.000000	0.000000	0.000000	0.000000	0.000000	0.000000	0.000000	0.000000	0.000000	68.129555	68.129555	68.129555	0.000000	68.129555	68.129555	68.129555	0.000000	0.000000	0.000000	0.000000	0.000000	0.000000	0.000000	7.569951	7.569951	0.000000
0.733333	0.000000	0.000000	0.000000	0.000000	0.000000	0.000000	0.000000	0.000000	0.000000	0.000000	0.000000	66.883034	66.883034	66.883034	0.000000	66.883034	66.883034	66.883034	0.000000	0.000000	0.000000	0.000000	0.000000	0.000000	0.000000	7.431448	7.431448	0.000000
0.740000	0.000000	0.000000	0.000000	0.000000	0.000000	0.000000	0.000000	0.000000	0.000000	0.000000	0.000000	65.607176	65.607176	65.607176	0.000000	65.607176	65.607176	65.607176	0.000000	0.000000	0.000000	0.000000	0.000000	0.000000	0.000000	7.289686	7.289686	0.000000
0.746667	0.000000	0.000000	0.000000	0.000000	0.000000	0.000000	0.000000	0.000000	0.000000	0.000000	0.000000	64.302541	64.302541	64.302541	0.000000	64.302541	64.302541	64.302541	0.000000	0.000000	0.000000	0.000000	0.000000	0.000000	0.000000	7.144727	7.144727	0.000000
0.753333	0.000000	0.000000	0.000000	0.000000	0.000000	0.000000	0.000000	0.000000	0.000000	0.000000	0.000000	62.969701	62.969701	62.969701	0.000000	62.969701	62.969701	62.969701	0.000000	0.000000	0.000000	0.000000	0.000000	0.000000	0.000000	6.996633	6.996633	0.000000
0.760000	0.000000	0.000000	0.000000	0.000000	0.000000	0.000000	0.000000	0.000000	0.000000	0.000000	0.000000	61.609240	61.609240	61.609240	0.000000	61.609240	61.609240	61.609240	0.000000	0.000000	0.000000	0.000000	0.000000	0.000000	0.000000	6.845471	6.845471	0.000000
0.766667	0.000000	0.000000	0.000000	0.000000	0.000000	0.000000	0.000000	0.000000	0.000000	0.000000	0.000000	60.221755	60.221755	60.221755	0.000000	60.221755	60.221755	60.221755	0.000000	0.000000	0.000000	0.000000	0.000000	0.000000	0.000000	6.691306	6.691306	0.000000
0.773333	0.000000	0.000000	0.000000	0.000000	0.000000	0.000000	0.000000	0.000000	0.000000	0.000000	0.000000	58.807854	58.807854	58.807854	0.000000	58.807854	58.807854	58.807854	0.000000	0.000000	0.000000	0.000000	0.000000	0.000000	0.000000	6.534206	6.534206	0.000000
0.780000	0.000000	0.000000	0.000000	0.000000	0.000000	0.000000	0.000000	0.000000	0.000000	0.000000	0.000000	57.368159	57.368159	57.368159	0.000000	57.368159	57.368159	57.368159	0.000000	0.000000	0.000000	0.000000	0.000000	0.000000	0.000000	6.374240	6.374240	0.000000
